<svg width="125" height="80" viewBox="0 0 125 80" fill="none" xmlns="http://www.w3.org/2000/svg">
<path d="M28.6656 13.39C28.2923 13.2267 27.9306 13.145 27.5806 13.145C27.2306 13.145 26.8806 13.3667 26.5306 13.81C26.1806 14.2533 25.9473 14.895 25.8306 15.735L24.0806 27.985C27.0206 26.7017 28.8989 25.745 29.7156 25.115L31.0456 27.425C30.3456 27.9617 29.5056 28.44 28.5256 28.86C27.5456 29.28 26.6006 29.6767 25.6906 30.05C24.7806 30.4 24.1039 30.6683 23.6606 30.855L22.5056 39.045C22.2023 41.285 21.3973 42.93 20.0906 43.98C18.8073 45.0533 17.3839 45.59 15.8206 45.59C14.2806 45.59 13.0556 45.0183 12.1456 43.875C11.2356 42.755 10.7806 41.495 10.7806 40.095C10.7806 36.4317 13.4639 33.1767 18.8306 30.33L19.1806 27.495C19.6239 23.4817 20.0789 19.9933 20.5456 17.03C19.2156 17.5667 17.8156 17.835 16.3456 17.835C14.8989 17.835 13.7206 17.4383 12.8106 16.645C11.9239 15.8517 11.4806 14.8133 11.4806 13.53C11.4806 12.2467 11.9356 11.2433 12.8456 10.52C13.7789 9.77333 14.9456 9.4 16.3456 9.4C17.2089 9.4 18.4456 9.66833 20.0556 10.205C21.6889 10.7417 22.9489 11.01 23.8356 11.01C25.4223 11.01 26.7523 10.6017 27.8256 9.785C28.4089 10.6017 28.7006 11.57 28.7006 12.69C28.7006 12.9233 28.6889 13.1567 28.6656 13.39ZM14.9456 14.475C14.9456 14.825 15.1323 15.1283 15.5056 15.385C15.9023 15.6417 16.4856 15.77 17.2556 15.77C18.0489 15.77 19.0756 15.42 20.3356 14.72C19.4256 14.51 18.4923 14.2767 17.5356 14.02C16.5789 13.74 16.0073 13.6 15.8206 13.6C15.2373 13.6 14.9456 13.8917 14.9456 14.475ZM18.4456 33.375C15.1089 35.3817 13.4406 37.505 13.4406 39.745C13.4406 40.375 13.6039 40.9117 13.9306 41.355C14.3039 41.8683 14.7706 42.125 15.3306 42.125C15.9139 42.125 16.4156 41.95 16.8356 41.6C17.2556 41.25 17.5123 40.69 17.6056 39.92L18.4456 33.375ZM29.1895 10.24C29.7262 9.68 30.3795 9.4 31.1495 9.4C31.9195 9.4 32.5728 9.68 33.1095 10.24C33.6695 10.7767 33.9495 11.43 33.9495 12.2C33.9495 12.97 33.6695 13.6233 33.1095 14.16C32.5728 14.6967 31.9195 14.965 31.1495 14.965C30.3795 14.965 29.7262 14.6967 29.1895 14.16C28.6528 13.6233 28.3845 12.97 28.3845 12.2C28.3845 11.43 28.6528 10.7767 29.1895 10.24ZM27.7545 20.495C27.9878 20.075 28.4312 19.76 29.0845 19.55C29.7378 19.3167 30.3795 19.2 31.0095 19.2C31.6628 19.2 32.2345 19.2817 32.7245 19.445C31.8145 26.4683 31.3595 30.015 31.3595 30.085C31.2428 30.5517 31.1845 30.9483 31.1845 31.275C31.1845 31.5783 31.2078 31.8467 31.2545 32.08C31.3478 32.6867 31.7678 32.99 32.5145 32.99C33.2845 32.99 33.9845 32.5 34.6145 31.52C35.2678 30.5167 35.7578 29.385 36.0845 28.125C36.2478 28.2183 36.5045 28.4983 36.8545 28.965C37.2045 29.4317 37.4145 29.7817 37.4845 30.015C37.0178 31.8817 36.2245 33.3867 35.1045 34.53C33.9845 35.6733 32.6428 36.245 31.0795 36.245C29.5162 36.245 28.3495 35.86 27.5795 35.09C26.8328 34.32 26.4595 33.3283 26.4595 32.115C26.4595 31.8583 26.4712 31.59 26.4945 31.31L27.7545 20.495ZM44.6051 32.08L45.4451 24.275C45.4451 23.645 45.2818 23.12 44.9551 22.7C44.6284 22.28 44.0801 22.07 43.3101 22.07C42.5634 22.07 41.9218 22.4083 41.3851 23.085C40.8718 23.7383 40.5451 24.5667 40.4051 25.57C39.5651 31.9633 39.1218 35.44 39.0751 36H34.3501L36.2751 19.515C37.2551 19.2583 38.0018 19.13 38.5151 19.13C40.0784 19.13 40.8951 19.7017 40.9651 20.845C42.1084 19.725 43.4734 19.165 45.0601 19.165C46.6701 19.165 47.9301 19.5617 48.8401 20.355C49.7501 21.1483 50.2051 22.1517 50.2051 23.365C50.2051 23.6917 50.1351 24.31 49.9951 25.22C49.4584 28.7667 49.1901 30.8317 49.1901 31.415C49.1901 32.4883 49.5518 33.025 50.2751 33.025C51.8618 33.025 53.0634 31.3683 53.8801 28.055C54.6734 28.895 55.1518 29.56 55.3151 30.05C54.0784 34.1567 51.9318 36.21 48.8751 36.21C47.4284 36.21 46.3551 35.7667 45.6551 34.88C44.9551 33.9933 44.6051 33.06 44.6051 32.08ZM62.1945 19.165C63.4778 19.165 64.6562 19.375 65.7295 19.795C66.4528 19.3517 67.2112 19.13 68.0045 19.13C68.7978 19.13 69.4278 19.235 69.8945 19.445L68.6345 29.315C70.3612 27.985 71.6678 26.7717 72.5545 25.675L73.5695 27.81C72.2395 29.21 70.4662 30.7033 68.2495 32.29L67.3045 39.605C67.0478 41.7983 66.3245 43.4783 65.1345 44.645C63.9678 45.835 62.4512 46.43 60.5845 46.43C59.5112 46.43 58.4612 46.08 57.4345 45.38C56.3612 44.6333 55.8245 43.4317 55.8245 41.775C55.8245 39.745 56.7928 37.89 58.7295 36.21C57.0728 36.0933 55.6495 35.405 54.4595 34.145C53.2695 32.885 52.6745 31.24 52.6745 29.21C52.6745 26.1533 53.5728 23.715 55.3695 21.895C57.1662 20.075 59.4412 19.165 62.1945 19.165ZM62.7195 21.895C61.2262 21.895 60.0362 22.4667 59.1495 23.61C58.2862 24.73 57.7728 26.41 57.6095 28.65C57.5862 28.86 57.5745 29.0583 57.5745 29.245C57.5745 30.3883 57.8428 31.2983 58.3795 31.975C58.9395 32.6517 59.6512 32.99 60.5145 32.99C61.9845 32.99 63.0928 31.9633 63.8395 29.91L64.7145 22.315C63.9912 22.035 63.3262 21.895 62.7195 21.895ZM58.5195 41.25C58.5195 41.88 58.6945 42.37 59.0445 42.72C59.4178 43.0933 59.8378 43.28 60.3045 43.28C61.6112 43.28 62.3695 42.4517 62.5795 40.795L63.1745 35.545C60.0712 37.3883 58.5195 39.29 58.5195 41.25ZM76.0974 36.245C74.6741 36.245 73.5541 35.8483 72.7374 35.055C71.9208 34.2383 71.5124 33.13 71.5124 31.73C71.5124 31.3567 72.1424 25.815 73.4024 15.105C73.7291 12.3517 74.6041 10.6133 76.0274 9.89C76.6808 9.54 77.4624 9.365 78.3724 9.365C81.4524 9.365 82.9924 10.7883 82.9924 13.635C82.9924 13.8683 82.9808 14.1133 82.9574 14.37C82.7241 17.4967 80.7641 20.6817 77.0774 23.925C76.9608 25.0683 76.8324 26.1767 76.6924 27.25C76.4124 29.6533 76.2724 30.9833 76.2724 31.24C76.2724 32.4533 76.7974 33.06 77.8474 33.06C78.9908 33.06 80.0524 32.4067 81.0324 31.1C82.0358 29.77 82.8058 28.0783 83.3424 26.025C83.5524 26.095 83.8441 26.2933 84.2174 26.62C84.5908 26.9233 84.8474 27.1917 84.9874 27.425C84.6141 29.3617 83.7741 31.2167 82.4674 32.99C81.8141 33.9 80.9858 34.6467 79.9824 35.23C78.8391 35.9067 77.5441 36.245 76.0974 36.245ZM77.4624 20.425C79.6091 18.0683 80.6824 15.9567 80.6824 14.09C80.6824 12.97 80.2624 12.41 79.4224 12.41C78.8858 12.4567 78.5241 12.8067 78.3374 13.46C78.1741 14.1133 78.0108 15.175 77.8474 16.645C77.7074 18.115 77.6141 19.025 77.5674 19.375L77.4624 20.425ZM88.6157 28.16C90.0624 27.8567 91.1357 27.2733 91.8357 26.41C92.559 25.5467 92.9207 24.7183 92.9207 23.925C92.9207 23.1083 92.699 22.56 92.2557 22.28C91.8357 21.9767 91.369 21.825 90.8557 21.825C89.759 21.825 88.7907 22.4433 87.9507 23.68C87.134 24.8933 86.7257 26.3517 86.7257 28.055C86.7257 29.735 87.1224 30.995 87.9157 31.835C88.7324 32.6517 89.7357 33.06 90.9257 33.06C92.6757 33.06 94.3557 32.4533 95.9657 31.24C97.5757 30.0267 98.8824 28.44 99.8857 26.48C100.399 26.97 100.866 27.5767 101.286 28.3C100.516 30.05 99.1507 31.765 97.1907 33.445C96.2107 34.2617 95.044 34.9267 93.6907 35.44C92.3607 35.9533 90.984 36.21 89.5607 36.21C87.2274 36.21 85.384 35.4983 84.0307 34.075C82.584 32.535 81.8607 30.5633 81.8607 28.16C81.8607 25.7567 82.759 23.6567 84.5557 21.86C86.3757 20.0633 88.5457 19.165 91.0657 19.165C92.8624 19.165 94.3207 19.5617 95.4407 20.355C96.5607 21.125 97.1324 22.175 97.1557 23.505C97.1557 25.3017 96.4324 26.76 94.9857 27.88C93.5624 29 91.6024 29.7817 89.1057 30.225L88.6157 28.16Z" fill="white"/>
<path d="M27.5087 51.704C27.5087 49.136 28.6247 47.12 30.8567 45.656C33.0887 44.192 35.6567 43.46 38.5607 43.46C42.2807 43.46 45.5447 44.528 48.3527 46.664C49.7447 47.744 50.8247 49.184 51.5927 50.984C52.3607 52.76 52.7447 54.728 52.7447 56.888C52.7447 61.136 51.5327 64.592 49.1087 67.256C46.5887 69.968 43.4327 71.324 39.6407 71.324C38.8007 71.324 37.9127 71.216 36.9767 71C36.0407 70.784 35.2967 70.496 34.7447 70.136C33.8567 70.808 32.7167 71.144 31.3247 71.144C29.9567 71.144 28.8887 70.76 28.1207 69.992C27.3527 69.224 26.9687 68.24 26.9687 67.04C26.9687 64.208 29.1167 61.796 33.4127 59.804C33.5327 58.796 33.7007 57.44 33.9167 55.736C34.1567 54.008 34.3367 52.616 34.4567 51.56C34.6007 50.504 34.6967 49.808 34.7447 49.472C35.7287 48.848 36.8687 48.536 38.1647 48.536C38.7647 48.536 39.3407 48.596 39.8927 48.716L37.6247 64.088C37.4087 65.456 37.1087 66.596 36.7247 67.508C37.4687 67.7 38.0687 67.796 38.5247 67.796C41.2847 67.796 43.4207 66.752 44.9327 64.664C46.4927 62.48 47.2727 59.84 47.2727 56.744C47.2727 52.784 45.8447 49.94 42.9887 48.212C41.4047 47.252 39.6647 46.772 37.7687 46.772C35.3447 46.772 33.4247 47.432 32.0087 48.752C31.1927 49.496 30.7847 50.396 30.7847 51.452C30.7847 52.004 30.9527 52.532 31.2887 53.036C31.6247 53.516 32.2127 53.792 33.0527 53.864L32.6927 56.204C30.9407 56.108 29.6327 55.628 28.7687 54.764C27.9287 53.876 27.5087 52.856 27.5087 51.704ZM29.6327 66.572C29.6327 67.436 30.0407 67.868 30.8567 67.868C31.1927 67.868 31.5407 67.652 31.9007 67.22C32.2847 66.764 32.5487 66.056 32.6927 65.096L33.0167 62.864C30.7607 64.136 29.6327 65.372 29.6327 66.572ZM64.4857 58.4C64.4857 57.344 63.9937 56.816 63.0097 56.816C62.0497 56.816 61.2817 57.44 60.7057 58.688C63.2977 60.728 64.5937 63.02 64.5937 65.564C64.5937 67.412 64.0777 68.816 63.0457 69.776C62.0137 70.736 60.7177 71.216 59.1577 71.216C57.5977 71.216 56.4577 70.736 55.7377 69.776C55.0177 68.792 54.6577 67.556 54.6577 66.068C54.6577 65.612 54.6697 65.276 54.6937 65.06L55.9537 54.08C56.8177 53.816 57.6937 53.684 58.5817 53.684C60.0457 53.684 60.7777 54.224 60.7777 55.304V55.376C61.7377 54.248 62.9617 53.684 64.4497 53.684C65.5297 53.684 66.3697 53.936 66.9697 54.44C67.5697 54.92 67.8697 55.568 67.8697 56.384C67.8697 57.2 67.5577 57.872 66.9337 58.4C66.3337 58.904 65.5417 59.156 64.5577 59.156C64.5097 59.156 64.4617 59.156 64.4137 59.156C64.4617 58.892 64.4857 58.64 64.4857 58.4ZM62.2537 65.384C62.2537 63.992 61.5337 62.6 60.0937 61.208C59.6617 64.664 59.4457 66.404 59.4457 66.428C59.4457 67.436 59.8537 67.94 60.6697 67.94C61.7257 67.94 62.2537 67.088 62.2537 65.384ZM84.7217 71.18C82.5137 71.18 81.0497 70.412 80.3297 68.876C79.0817 70.436 77.4737 71.216 75.5057 71.216C73.5617 71.216 71.9177 70.556 70.5737 69.236C69.2537 67.916 68.5937 66.176 68.5937 64.016C68.5937 60.872 69.5177 58.364 71.3657 56.492C73.2137 54.62 75.5537 53.684 78.3857 53.684C78.4577 53.684 78.5297 53.684 78.6017 53.684C79.8017 53.684 80.9057 53.888 81.9137 54.296C82.5617 53.888 83.3417 53.684 84.2537 53.684C85.1897 53.684 85.8617 53.804 86.2697 54.044C86.0537 55.82 85.8257 57.572 85.5857 59.3C85.3457 61.004 85.1777 62.216 85.0817 62.936C84.8657 64.568 84.7577 65.744 84.7577 66.464C84.7577 67.424 85.1417 67.904 85.9097 67.904C86.5097 67.904 87.1457 67.508 87.8177 66.716C88.4897 65.9 89.0777 64.628 89.5817 62.9C90.2777 63.524 90.7577 64.22 91.0217 64.988C90.3257 67.268 89.3897 68.876 88.2137 69.812C87.0377 70.724 85.8737 71.18 84.7217 71.18ZM78.9257 56.492C77.3897 56.492 76.1657 57.08 75.2537 58.256C74.3657 59.408 73.8377 61.136 73.6697 63.44C73.6457 63.656 73.6337 63.86 73.6337 64.052C73.6337 65.228 73.9097 66.164 74.4617 66.86C75.0377 67.556 75.7697 67.904 76.6577 67.904C78.1697 67.904 79.3097 66.836 80.0777 64.7L80.9417 56.924C80.2457 56.636 79.5737 56.492 78.9257 56.492ZM102.968 65.276C102.968 67.004 103.7 67.868 105.164 67.868C105.212 67.868 105.248 67.868 105.272 67.868C105.944 67.868 106.544 67.508 107.072 66.788C107.6 66.068 107.996 65.168 108.26 64.088C108.836 61.88 109.124 59.876 109.124 58.076H108.8C107.792 58.076 107.012 57.848 106.46 57.392C105.884 56.864 105.596 56.228 105.596 55.484C105.596 54.74 105.824 54.14 106.28 53.684C106.832 53.18 107.516 52.928 108.332 52.928C110.108 52.928 111.308 53.84 111.932 55.664C113.612 55.256 115.388 54.692 117.26 53.972V56.024C115.484 56.696 113.828 57.212 112.292 57.572C112.316 57.764 112.328 58.04 112.328 58.4C112.232 63.368 111.068 66.968 108.836 69.2C107.516 70.52 105.8 71.18 103.688 71.18C101.6 71.18 100.04 70.292 99.0083 68.516C97.8323 70.316 96.0323 71.216 93.6083 71.216C92.1683 71.216 90.9803 70.712 90.0443 69.704C89.1323 68.672 88.6763 67.46 88.6763 66.068C88.6763 65.828 88.6883 65.54 88.7123 65.204C89.2163 61.028 89.6363 57.332 89.9723 54.116C90.8363 53.828 91.5923 53.684 92.2403 53.684C93.9443 53.684 94.7963 54.272 94.7963 55.448C94.7963 55.904 94.6163 57.476 94.2563 60.164C93.8003 63.548 93.5723 65.456 93.5723 65.888C93.5723 66.296 93.7283 66.704 94.0403 67.112C94.3763 67.52 94.8443 67.724 95.4443 67.724C96.0683 67.724 96.6203 67.448 97.1003 66.896C97.5803 66.344 97.9283 65.672 98.1443 64.88L99.4043 54.116C100.172 53.828 100.988 53.684 101.852 53.684C103.412 53.684 104.192 54.272 104.192 55.448C104.192 55.88 104.024 57.284 103.688 59.66C103.208 63.02 102.968 64.892 102.968 65.276ZM107.648 55.484C107.648 55.892 107.996 56.096 108.692 56.096C108.764 56.096 108.836 56.096 108.908 56.096C108.74 55.448 108.488 55.124 108.152 55.124C107.816 55.124 107.648 55.244 107.648 55.484Z" fill="white"/>
</svg>
